HIERARCHY
ROOT Hips
{
	OFFSET 161.749496 92.559273 7.494435
	CHANNELS 6 Xposition Yposition Zposition Zrotation Yrotation Xrotation 
	JOINT LeftUpLeg
	{
		OFFSET 0.103458 1.857830 10.548506
		CHANNELS 3 Zrotation Yrotation Xrotation
		JOINT LeftLeg
		{
			OFFSET 43.500000 -0.000031 0.000008
			CHANNELS 3 Zrotation Yrotation Xrotation
			JOINT LeftFoot
			{
				OFFSET 42.372192 0.000011 -0.000005
				CHANNELS 3 Zrotation Yrotation Xrotation
				JOINT LeftToe
				{
					OFFSET 17.300001 -0.000001 0.000000
					CHANNELS 3 Zrotation Yrotation Xrotation
					End Site
					{
						OFFSET 0.000000 0.000000 0.000000
					}
				}
			}
		}
	}
	JOINT RightUpLeg
	{
		OFFSET 0.103461 1.857827 -10.548508
		CHANNELS 3 Zrotation Yrotation Xrotation
		JOINT RightLeg
		{
			OFFSET 43.500050 -0.000011 0.000008
			CHANNELS 3 Zrotation Yrotation Xrotation
			JOINT RightFoot
			{
				OFFSET 42.372261 -0.000011 0.000014
				CHANNELS 3 Zrotation Yrotation Xrotation
				JOINT RightToe
				{
					OFFSET 17.299994 -0.000005 0.000010
					CHANNELS 3 Zrotation Yrotation Xrotation
					End Site
					{
						OFFSET 0.000000 0.000000 0.000000
					}
				}
			}
		}
	}
	JOINT Spine
	{
		OFFSET 6.901967 -2.603731 -0.000004
		CHANNELS 3 Zrotation Yrotation Xrotation
		JOINT Spine1
		{
			OFFSET 12.588100 -0.000003 0.000008
			CHANNELS 3 Zrotation Yrotation Xrotation
			JOINT Spine2
			{
				OFFSET 12.343203 0.000004 0.000003
				CHANNELS 3 Zrotation Yrotation Xrotation
				JOINT Neck
				{
					OFFSET 25.832893 -0.000006 0.000000
					CHANNELS 3 Zrotation Yrotation Xrotation
					JOINT Head
					{
						OFFSET 11.766603 0.000010 -0.000010
						CHANNELS 3 Zrotation Yrotation Xrotation
						End Site
						{
							OFFSET 0.000000 0.000000 0.000000
						}
					}
				}
				JOINT LeftShoulder
				{
					OFFSET 19.745899 -1.480368 6.000103
					CHANNELS 3 Zrotation Yrotation Xrotation
					JOINT LeftArm
					{
						OFFSET 11.284128 -0.000007 -0.000012
						CHANNELS 3 Zrotation Yrotation Xrotation
						JOINT LeftForeArm
						{
							OFFSET 33.000050 0.000004 0.000022
							CHANNELS 3 Zrotation Yrotation Xrotation
							JOINT LeftHand
							{
								OFFSET 25.200001 0.000015 0.000014
								CHANNELS 3 Zrotation Yrotation Xrotation
								End Site
								{
									OFFSET 0.000000 0.000000 0.000000
								}
							}
						}
					}
				}
				JOINT RightShoulder
				{
					OFFSET 19.746090 -1.480375 -6.000075
					CHANNELS 3 Zrotation Yrotation Xrotation
					JOINT RightArm
					{
						OFFSET 11.284135 -0.000015 -0.000023
						CHANNELS 3 Zrotation Yrotation Xrotation
						JOINT RightForeArm
						{
							OFFSET 33.000099 0.000019 0.000022
							CHANNELS 3 Zrotation Yrotation Xrotation
							JOINT RightHand
							{
								OFFSET 25.199783 0.000140 0.000422
								CHANNELS 3 Zrotation Yrotation Xrotation
								End Site
								{
									OFFSET 0.000000 0.000000 0.000000
								}
							}
						}
					}
				}
			}
		}
	}
}
MOTION
Frames: 5
Frame Time: 0.033333
106.701401 42.966942 497.187592 24.442670 -9.831806 171.903622 144.461752 -5.433503 176.957265 -73.081815 -2.056716 15.177121 44.802342 -17.405567 -9.521108 21.454553 0.003095 0.000002 101.540065 16.227599 172.932508 -117.913312 -4.020320 9.876991 58.342608 -1.158780 12.729092 21.454560 -0.003109 -0.000022 12.795380 5.034013 3.462766 15.953633 9.542207 7.617174 15.633741 9.588033 7.559392 -9.489522 8.619931 14.819280 -51.672697 -10.929042 26.483396 -46.390040 -75.151909 -136.437004 -61.766357 -20.162903 -22.344790 -28.189574 -22.287546 1.660344 34.545813 -38.148276 -39.975502 99.186607 65.805594 -81.349486 -34.548552 9.067044 57.563871 -126.045199 -3.242450 -3.676589 5.413844 15.551021 -4.781998 
107.300697 42.726101 497.624512 24.580910 -9.459735 170.457520 146.028434 -6.839095 175.737748 -72.150423 -2.189782 14.991729 45.247333 -17.111319 -9.384523 21.454553 0.003090 -0.000001 103.040917 15.204298 173.440073 -116.993696 -3.951168 9.156432 58.590292 -0.606373 12.823411 21.454555 -0.003110 -0.000019 12.810482 4.857825 3.709665 15.985351 9.156196 8.084599 15.666241 9.204834 8.029249 -9.083287 6.985995 14.461700 -52.307969 -10.043867 25.056383 -51.694010 -75.351282 -131.180053 -64.134424 -20.125050 -22.444719 -28.840416 -22.748266 1.702248 33.326235 -39.759385 -37.539058 100.649285 64.140210 -80.042304 -32.491268 8.048663 57.034398 -125.798001 -3.187715 -3.674071 4.781184 16.275562 -4.003360 
107.869598 42.528400 498.169891 24.776639 -8.995071 169.854620 147.478592 -7.943694 175.070685 -71.307086 -2.181650 15.075230 46.056044 -16.789302 -8.927349 21.454551 0.003092 -0.000001 104.305014 14.409609 173.631018 -116.315103 -3.913389 8.388539 57.923112 0.224720 13.197233 21.454551 -0.003108 -0.000015 12.786709 4.735805 3.887690 15.938340 8.890515 8.419703 15.619780 8.941147 8.366014 -9.670059 5.944793 13.821355 -52.065286 -9.052042 23.299343 -54.901009 -75.529407 -127.993046 -66.007003 -19.962621 -23.387604 -30.267007 -22.766831 1.731935 31.294537 -41.720448 -34.463738 102.426132 62.866311 -78.388305 -30.597861 6.972017 56.231277 -125.502609 -3.040051 -3.669313 3.776587 16.952062 -3.985992 
108.422699 42.471539 498.738190 24.578159 -8.292279 169.273493 148.498080 -9.393996 174.624769 -70.876340 -2.375736 15.093999 47.842699 -16.011471 -7.977109 21.454553 0.003090 0.000001 105.362348 13.104401 173.728484 -115.616087 -3.883016 7.468014 57.641291 1.177759 13.680775 21.454557 -0.003108 -0.000022 12.681179 4.657871 4.192718 15.740212 8.701574 9.009657 15.422367 8.755741 8.957196 -9.575043 5.391005 13.458419 -52.769417 -8.405381 22.360766 -56.248028 -75.661789 -126.649042 -67.613115 -20.021166 -22.249548 -31.011617 -22.763173 1.747162 31.425533 -42.887567 -35.120208 103.402336 61.854808 -77.508802 -28.735644 5.296985 55.455955 -124.987708 -2.795227 -3.665922 2.955117 17.660322 -3.913949 
109.035301 42.459782 499.253601 24.220061 -7.955790 168.054072 149.478116 -10.721499 173.646659 -71.604882 -2.708934 14.385403 52.258115 -13.678030 -5.602206 21.454553 0.003092 0.000000 106.035326 11.448503 173.683187 -114.750293 -3.891782 6.764630 57.470544 1.670632 13.562586 21.454567 -0.003107 -0.000015 12.579330 4.448208 4.470644 15.532368 8.255392 9.525900 15.215440 8.312646 9.476228 -9.006708 4.229805 13.425064 -53.486569 -7.311700 21.213388 -58.827053 -75.330218 -124.120984 -69.187583 -19.847864 -21.178209 -31.621020 -22.810460 1.763172 30.956350 -44.188404 -35.317286 103.520970 60.918409 -77.480286 -28.113759 3.727160 54.429426 -123.853692 -2.621548 -3.633187 2.447373 18.270030 -3.617106 
